<svg xmlns="http://www.w3.org/2000/svg" fill="none" viewBox="0 0 16 16" id="Laravel--Streamline-Svg-Logos" height="16" width="16">
  <desc>
    Laravel Streamline Icon: https://streamlinehq.com
  </desc>
  <path fill="#ff2d20" d="M15.600666666666665 3.7108833333333333c0.005633333333333332 0.02088333333333333 0.008566666666666667 0.042416666666666665 0.008566666666666667 0.06405v3.3628166666666663c0 0.08785 -0.04698333333333333 0.16898333333333332 -0.12319999999999999 0.2127l-2.8224666666666662 1.625v3.2209166666666667c0 0.08765 -0.04658333333333334 0.16856666666666667 -0.1226 0.2127L6.649316666666666 15.800683333333334c-0.013483333333333333 0.007666666666666666 -0.028199999999999996 0.012566666666666665 -0.042916666666666665 0.017766666666666667 -0.005516666666666666 0.00185 -0.010716666666666666 0.005216666666666666 -0.01655 0.00675 -0.04118333333333333 0.01085 -0.08446666666666666 0.01085 -0.12564999999999998 0 -0.00675 -0.001833333333333333 -0.012883333333333332 -0.005516666666666666 -0.019316666666666666 -0.007966666666666667 -0.013483333333333333 -0.0049 -0.027583333333333335 -0.0092 -0.04045 -0.01655L0.5139966666666667 12.409066666666668c-0.07616333333333333 -0.04375 -0.12320833333333332 -0.12486666666666665 -0.12320833333333332 -0.2127V2.1079333333333334c0 -0.022066666666666665 0.003065 -0.04351666666666666 0.008581666666666666 -0.06436666666666666 0.0018383333333333333 -0.007049999999999999 0.00613 -0.013483333333333333 0.008581666666666666 -0.020533333333333334 0.0045966666666666664 -0.012866666666666667 0.008888333333333333 -0.026049999999999997 0.015629999999999998 -0.038 0.004598333333333333 -0.007966666666666667 0.01134 -0.0144 0.016856666666666666 -0.021766666666666663 0.007049999999999999 -0.0098 0.013486666666666668 -0.019916666666666666 0.021761666666666665 -0.0285 0.007049999999999999 -0.007049999999999999 0.016243333333333332 -0.012266666666666665 0.02421333333333333 -0.01838333333333333 0.008888333333333333 -0.007366666666666667 0.016856666666666666 -0.015333333333333332 0.026969999999999997 -0.021150000000000002h0.0003066666666666667L3.4590666666666667 0.19942166666666666c0.07588333333333333 -0.04367333333333333 0.16928333333333334 -0.04367333333333333 0.24518333333333334 0L6.649616666666667 1.895233333333333h0.0006166666666666666c0.0098 0.006133333333333333 0.018083333333333333 0.013783333333333331 0.026966666666666667 0.020833333333333332 0.007966666666666667 0.006133333333333333 0.016866666666666665 0.01165 0.023916666666666662 0.0184 0.008583333333333332 0.008883333333333333 0.0147 0.019 0.022066666666666665 0.0288 0.0052 0.007366666666666667 0.012249999999999999 0.0138 0.01655 0.021766666666666663 0.007049999999999999 0.012266666666666665 0.011033333333333332 0.02513333333333333 0.015933333333333334 0.038 0.00245 0.007049999999999999 0.0067333333333333325 0.013483333333333333 0.008583333333333332 0.020849999999999997 0.005633333333333332 0.02088333333333333 0.008516666666666665 0.042416666666666665 0.008583333333333332 0.06405v6.3011333333333335l2.4543666666666666 -1.4132333333333333V3.774633333333333c0 -0.021466666666666665 0.0030666666666666663 -0.04321666666666666 0.008583333333333332 -0.06375 0.00215 -0.007366666666666667 0.006133333333333333 -0.0138 0.008583333333333332 -0.020849999999999997 0.0049 -0.012866666666666667 0.0092 -0.026049999999999997 0.015933333333333334 -0.038 0.0046 -0.007966666666666667 0.011333333333333334 -0.0144 0.01655 -0.021766666666666663 0.00735 -0.0098 0.013483333333333333 -0.019916666666666666 0.022066666666666665 -0.0285 0.007049999999999999 -0.007049999999999999 0.015933333333333334 -0.012266666666666665 0.023916666666666662 -0.01838333333333333 0.009183333333333333 -0.007366666666666667 0.01715 -0.015333333333333332 0.026966666666666667 -0.021150000000000002h0.0003l2.945683333333333 -1.6958166666666665c0.07586666666666667 -0.04373333333333333 0.1693 -0.04373333333333333 0.24518333333333334 0L15.486333333333334 3.5622333333333334c0.010433333333333333 0.006133333333333333 0.0184 0.013783333333333331 0.027583333333333335 0.020833333333333332 0.007666666666666666 0.006133333333333333 0.01655 0.01165 0.0236 0.0184 0.008583333333333332 0.008883333333333333 0.014716666666666666 0.019 0.022066666666666665 0.0288 0.005516666666666666 0.007366666666666667 0.012266666666666665 0.0138 0.01655 0.021766666666666663 0.007049999999999999 0.011949999999999999 0.011033333333333332 0.02513333333333333 0.01595 0.038 0.00275 0.007049999999999999 0.0067333333333333325 0.013483333333333333 0.008583333333333332 0.020849999999999997ZM15.11825 6.995833333333334V4.199416666666666l-1.0307333333333333 0.5933666666666666 -1.4239499999999998 0.8198666666666666v2.7964166666666666l2.4549833333333333 -1.4132333333333333h-0.0003ZM12.172883333333333 12.05445V9.2562l-1.4006666666666665 0.7999333333333333 -3.9997 2.28275v2.8246l5.400366666666667 -3.109033333333333ZM0.8817849999999999 2.5324166666666663v9.522033333333333L6.281533333333333 15.163183333333333v-2.824l-2.82095 -1.5965 -0.0009166666666666665 -0.0006166666666666666 -0.0012166666666666667 -0.0006166666666666666c-0.0095 -0.005516666666666666 -0.017466666666666665 -0.013483333333333333 -0.026366666666666667 -0.020233333333333332 -0.0076500000000000005 -0.006116666666666667 -0.01655 -0.011033333333333332 -0.02328333333333333 -0.017766666666666667l-0.0006166666666666666 -0.0009166666666666665c-0.007966666666666667 -0.007666666666666666 -0.013483333333333333 -0.017166666666666663 -0.020233333333333332 -0.02575 -0.006133333333333333 -0.008283333333333334 -0.013483333333333333 -0.015333333333333332 -0.01838333333333333 -0.023899999999999998l-0.00031666666666666665 -0.0009333333333333333c-0.005516666666666666 -0.009183333333333333 -0.008883333333333333 -0.020216666666666668 -0.012866666666666667 -0.03065 -0.0039833333333333335 -0.009183333333333333 -0.0092 -0.017766666666666667 -0.01165 -0.027583333333333335v-0.0003c-0.0030666666666666663 -0.01165 -0.003666666666666666 -0.023899999999999998 -0.0049 -0.035866666666666665 -0.0012166666666666667 -0.009183333333333333 -0.0036833333333333336 -0.01838333333333333 -0.0036833333333333336 -0.027583333333333335V3.9456499999999997l-1.4236333333333333 -0.8201666666666667 -1.0307316666666666 -0.59275v-0.00031666666666666665ZM3.5819666666666667 0.6953216666666666 1.1278966666666665 2.1079333333333334l2.453453333333333 1.4126166666666666 2.45375 -1.4129166666666664 -2.45375 -1.4123116666666666h0.0006166666666666666Zm1.2762166666666666 8.815878333333332 1.4236499999999999 -0.81955V2.5324166666666663l-1.0307333333333333 0.5933666666666666 -1.4239499999999998 0.8198666666666666v6.159216666666667l1.0310333333333332 -0.5936666666666666Zm7.560183333333333 -7.148883333333334 -2.45375 1.4126166666666666 2.45375 1.4126166666666666 2.4534666666666665 -1.4129166666666664 -2.4534666666666665 -1.4123166666666667Zm-0.24548333333333333 3.250333333333333 -1.4239666666666664 -0.8198666666666666 -1.0307166666666667 -0.5933666666666666V6.995833333333334l1.4236499999999999 0.8195666666666666 1.0310333333333332 0.5936666666666666V5.6126499999999995Zm-5.646166666666667 6.301733333333333L10.125833333333333 9.859683333333333l1.7991000000000001 -1.0267499999999998 -2.4519333333333333 -1.4116833333333334 -2.8230666666666666 1.6253166666666665 -2.572983333333333 1.4812666666666667 2.4497666666666666 1.38655Z" stroke-width="0.1667"></path>
</svg>