<svg xmlns="http://www.w3.org/2000/svg" fill="none" viewBox="0 0 36 36" id="Laravel--Streamline-Svg-Logos" height="36" width="36">
  <desc>
    Laravel Streamline Icon: https://streamlinehq.com
  </desc>
  <path fill="#ff2d20" d="M35.1015 8.3494875c0.012674999999999999 0.0469875 0.019275 0.09543750000000001 0.019275 0.14411249999999998v7.5663374999999995c0 0.19766250000000002 -0.10571249999999999 0.3802125 -0.2772 0.478575l-6.35055 3.65625v7.2470625c0 0.1972125 -0.1048125 0.37927500000000003 -0.27585000000000004 0.478575L14.960962499999999 35.5515375c-0.0303375 0.01725 -0.06344999999999999 0.028274999999999998 -0.0965625 0.039975 -0.0124125 0.0041625 -0.0241125 0.011737500000000001 -0.0372375 0.0151875 -0.0926625 0.024412500000000004 -0.19005 0.024412500000000004 -0.28271250000000003 0 -0.0151875 -0.004125 -0.0289875 -0.0124125 -0.0434625 -0.017925 -0.0303375 -0.011025 -0.06206250000000001 -0.0207 -0.0910125 -0.0372375L1.1564925 27.9204c-0.1713675 -0.09843750000000001 -0.27721874999999996 -0.28095 -0.27721874999999996 -0.478575V4.742850000000001c0 -0.04965 0.00689625 -0.0979125 0.01930875 -0.14482499999999998 0.00413625 -0.015862499999999998 0.0137925 -0.0303375 0.01930875 -0.046200000000000005 0.010342500000000001 -0.028950000000000004 0.019998750000000003 -0.0586125 0.035167500000000004 -0.0855 0.01034625 -0.017925 0.025515000000000003 -0.0324 0.037927499999999996 -0.048975 0.015862499999999998 -0.02205 0.030345000000000004 -0.0448125 0.04896375 -0.064125 0.015862499999999998 -0.015862499999999998 0.036547500000000004 -0.0276 0.05448 -0.041362499999999996 0.019998750000000003 -0.016575 0.037927499999999996 -0.0345 0.0606825 -0.047587500000000005h0.0006900000000000001L7.7829 0.44869875000000004c0.1707375 -0.09826499999999999 0.38088750000000005 -0.09826499999999999 0.5516625000000001 0L14.9616375 4.264275h0.0013875c0.02205 0.0138 0.0406875 0.0310125 0.060675 0.046875 0.017925 0.0138 0.03795 0.0262125 0.0538125 0.0414 0.0193125 0.0199875 0.033075 0.04275 0.04965 0.0648 0.011699999999999999 0.016575 0.027562499999999997 0.03105 0.0372375 0.048975 0.015862499999999998 0.0276 0.024825 0.056549999999999996 0.03585 0.0855 0.0055125 0.015862499999999998 0.01515 0.0303375 0.0193125 0.046912499999999996 0.012674999999999999 0.0469875 0.0191625 0.09543750000000001 0.0193125 0.14411249999999998v14.17755l5.522325 -3.1797750000000002V8.492925c0 -0.048299999999999996 0.0069 -0.09723749999999999 0.0193125 -0.1434375 0.0048375 -0.016575 0.0138 -0.03105 0.0193125 -0.046912499999999996 0.011025 -0.028950000000000004 0.0207 -0.0586125 0.03585 -0.0855 0.01035 -0.017925 0.025500000000000002 -0.0324 0.0372375 -0.048975 0.0165375 -0.02205 0.0303375 -0.0448125 0.04965 -0.064125 0.015862499999999998 -0.015862499999999998 0.03585 -0.0276 0.0538125 -0.041362499999999996 0.0206625 -0.016575 0.038587500000000004 -0.0345 0.060675 -0.047587500000000005h0.000675l6.6277875 -3.8155874999999995c0.1707 -0.09840000000000002 0.380925 -0.09840000000000002 0.5516625000000001 0L34.84425 8.015025c0.023475000000000003 0.0138 0.0414 0.0310125 0.06206250000000001 0.046875 0.01725 0.0138 0.0372375 0.0262125 0.0531 0.0414 0.0193125 0.0199875 0.0331125 0.04275 0.04965 0.0648 0.0124125 0.016575 0.0276 0.03105 0.0372375 0.048975 0.015862499999999998 0.0268875 0.024825 0.056549999999999996 0.035887499999999996 0.0855 0.0061875 0.015862499999999998 0.01515 0.0303375 0.0193125 0.046912499999999996ZM34.016062500000004 15.740625000000001V9.4486875l-2.31915 1.335075 -3.2038874999999996 1.8447v6.2919375l5.5237125 -3.1797750000000002h-0.000675ZM27.3889875 27.1225125V20.82645l-3.1515 1.79985 -8.999325 5.1361875v6.3553500000000005l12.150825000000001 -6.995324999999999ZM1.9840162499999998 5.6979375v21.424574999999997L14.13345 34.1171625v-6.353999999999999l-6.3471375 -3.5921250000000002 -0.0020625 -0.0013875 -0.0027375 -0.0013875c-0.021375 -0.0124125 -0.0393 -0.0303375 -0.059325 -0.045524999999999996 -0.017212500000000002 -0.0137625 -0.0372375 -0.024825 -0.0523875 -0.039975l-0.0013875 -0.0020625c-0.017925 -0.01725 -0.0303375 -0.038625 -0.045524999999999996 -0.0579375 -0.0138 -0.0186375 -0.0303375 -0.0345 -0.041362499999999996 -0.053775l-0.0007125 -0.0021c-0.0124125 -0.0206625 -0.0199875 -0.0454875 -0.028950000000000004 -0.06896250000000001 -0.0089625 -0.0206625 -0.0207 -0.039975 -0.0262125 -0.06206250000000001v-0.000675c-0.0069 -0.0262125 -0.00825 -0.053775 -0.011025 -0.0807 -0.0027375 -0.0206625 -0.0082875 -0.041362499999999996 -0.0082875 -0.06206250000000001V8.8777125l-3.203175 -1.8453750000000002 -2.3191462499999997 -1.3336875000000001v-0.0007125ZM8.059425000000001 1.5644737499999999 2.5377675 4.742850000000001l5.52027 3.1783875 5.5209375000000005 -3.1790624999999997 -5.5209375000000005 -3.17770125h0.0013875Zm2.8714875 19.83572625 3.2032125000000002 -1.8439875V5.6979375l-2.31915 1.335075 -3.2038874999999996 1.8447v13.858237500000001l2.3198250000000002 -1.33575Zm17.0104125 -16.0849875 -5.5209375000000005 3.1783875 5.5209375000000005 3.1783875 5.520300000000001 -3.1790624999999997 -5.520300000000001 -3.1777125Zm-0.5523375 7.31325 -3.203925 -1.8447 -2.3191125 -1.335075V15.740625000000001l3.2032125000000002 1.8440249999999998 2.3198250000000002 1.33575V12.6284625Zm-12.703875 14.1789L22.783125000000002 22.1842875l4.047975 -2.3101875 -5.51685 -3.1762875 -6.3519000000000005 3.6569624999999997 -5.7892125000000005 3.3328500000000005 5.5119750000000005 3.1197375000000003Z" stroke-width="0.375"></path>
</svg>