<?xml version="1.0" encoding="UTF-8"?>
<svg xmlns="http://www.w3.org/2000/svg" xmlns:xlink="http://www.w3.org/1999/xlink" width="36px" height="36px" viewBox="0 0 36 36" version="1.1">
<g id="surface1">
<path style=" stroke:none;fill-rule:nonzero;fill:rgb(0%,0%,0%);fill-opacity:1;" d="M 4.5625 4.433594 C 4.464844 4.433594 4.375 4.480469 4.316406 4.558594 C 4.257812 4.632812 4.234375 4.734375 4.257812 4.828125 L 11.121094 32.597656 C 11.148438 32.707031 11.230469 32.796875 11.339844 32.828125 C 11.449219 32.859375 11.566406 32.828125 11.648438 32.75 L 32.289062 12.898438 C 32.371094 12.820312 32.402344 12.703125 32.375 12.59375 C 32.347656 12.480469 32.265625 12.394531 32.15625 12.363281 L 4.65625 4.445312 C 4.625 4.4375 4.59375 4.433594 4.5625 4.433594 Z M 5.007812 5.207031 L 31.453125 12.820312 L 11.605469 31.910156 Z M 5.007812 5.207031 "/>
<path style=" stroke:none;fill-rule:nonzero;fill:rgb(0%,0%,0%);fill-opacity:1;" d="M 18.320312 8.390625 C 18.234375 8.390625 18.152344 8.421875 18.09375 8.480469 L 7.777344 18.410156 C 7.695312 18.488281 7.664062 18.605469 7.691406 18.714844 C 7.71875 18.824219 7.800781 18.914062 7.910156 18.945312 L 21.652344 22.90625 C 21.761719 22.9375 21.878906 22.90625 21.960938 22.828125 C 22.042969 22.75 22.074219 22.632812 22.046875 22.523438 L 18.621094 8.632812 C 18.585938 8.496094 18.464844 8.394531 18.320312 8.390625 Z M 18.136719 9.320312 L 21.300781 22.144531 L 8.613281 18.488281 Z M 18.136719 9.320312 "/>
<path style=" stroke:none;fill-rule:nonzero;fill:rgb(0%,0%,0%);fill-opacity:1;" d="M 13.195312 13.308594 C 13.097656 13.308594 13.007812 13.355469 12.949219 13.429688 C 12.890625 13.507812 12.867188 13.605469 12.890625 13.699219 L 14.59375 20.597656 C 14.621094 20.710938 14.707031 20.796875 14.816406 20.828125 C 14.925781 20.859375 15.042969 20.832031 15.125 20.753906 L 20.25 15.8125 C 20.328125 15.734375 20.363281 15.617188 20.335938 15.507812 C 20.308594 15.398438 20.226562 15.308594 20.117188 15.277344 L 13.289062 13.320312 C 13.257812 13.308594 13.226562 13.304688 13.195312 13.308594 Z M 13.640625 14.082031 L 19.410156 15.738281 L 15.078125 19.914062 Z M 13.640625 14.082031 "/>
<path style=" stroke:none;fill-rule:nonzero;fill:rgb(0%,0%,0%);fill-opacity:1;" d="M 11.503906 6.414062 C 11.417969 6.414062 11.335938 6.445312 11.277344 6.503906 L 6.152344 11.441406 C 6.070312 11.523438 6.035156 11.636719 6.0625 11.75 C 6.089844 11.859375 6.175781 11.945312 6.285156 11.976562 L 13.109375 13.9375 C 13.21875 13.96875 13.335938 13.9375 13.417969 13.859375 C 13.5 13.78125 13.535156 13.664062 13.507812 13.554688 L 11.804688 6.65625 C 11.769531 6.515625 11.648438 6.417969 11.503906 6.414062 Z M 11.320312 7.34375 L 12.757812 13.175781 L 6.988281 11.519531 Z M 25.160156 10.347656 C 25.074219 10.347656 24.992188 10.378906 24.933594 10.4375 L 19.804688 15.375 C 19.726562 15.453125 19.691406 15.570312 19.71875 15.679688 C 19.746094 15.792969 19.828125 15.878906 19.9375 15.910156 L 26.765625 17.871094 C 26.875 17.902344 26.992188 17.871094 27.074219 17.792969 C 27.15625 17.714844 27.191406 17.597656 27.164062 17.488281 L 25.460938 10.589844 C 25.425781 10.449219 25.300781 10.351562 25.160156 10.347656 Z M 24.976562 11.277344 L 26.414062 17.109375 L 20.644531 15.453125 Z M 14.890625 20.210938 C 14.8125 20.214844 14.738281 20.246094 14.683594 20.300781 L 9.558594 25.238281 C 9.476562 25.320312 9.441406 25.433594 9.46875 25.546875 C 9.496094 25.65625 9.582031 25.742188 9.691406 25.773438 L 16.519531 27.734375 C 16.628906 27.765625 16.746094 27.734375 16.824219 27.65625 C 16.90625 27.578125 16.941406 27.460938 16.914062 27.351562 L 15.210938 20.453125 C 15.175781 20.308594 15.042969 20.207031 14.890625 20.210938 Z M 14.726562 21.140625 L 16.167969 26.972656 L 10.394531 25.316406 Z M 14.726562 21.140625 "/>
</g>
</svg>
